catching_a_ball coordinate motion generated from LLM joint_angles
version=1
nRows=29
nColumns=29
inDegrees=yes
endheader
time	elbow_flexion	pro_sup	rotaxis_auxprfem_r3	deviation	auxprrud_auxdrfem_r3	auxdrfem_auxdrrud_r1	MCP2_lateral	MCP2_flex	PIP_flex	DIP_flex	MCP2M_lateral	MCP2M_flex	MPIP_flex	MDIP_flex	RCP2M_lateral	RCP2M_flex	RPIP_flex	RDIP_flex	LCP2M_lateral	LCP2M_flex	LPIP_flex	LDIP_flex	thumb_abd	thumb_flex	TCP2M_lateral	TCP2M_flex	TCP2M2_flex	flexion
0.000000	0.000000	0.000000	0.000000	0.000000	0.000000	0.000000	0.000000	0.000000	0.000000	0.000000	0.000000	0.000000	0.000000	0.000000	0.000000	0.000000	0.000000	0.000000	0.000000	0.000000	0.000000	0.000000	0.000000	0.000000	0.000000	0.000000	0.000000	0.000000
0.006667	0.000000	0.000000	0.000000	0.209424	0.000000	0.000000	0.000000	1.256545	1.256545	1.256545	0.000000	1.256545	1.256545	1.256545	0.000000	0.942409	0.942409	0.942409	0.000000	0.942409	0.942409	0.942409	0.418848	0.942409	0.000000	0.000000	0.000000	0.418848
0.013333	0.000000	0.000000	0.000000	0.418757	0.000000	0.000000	0.000000	2.512539	2.512539	2.512539	0.000000	2.512539	2.512539	2.512539	0.000000	1.884404	1.884404	1.884404	0.000000	1.884404	1.884404	1.884404	0.837513	1.884404	0.000000	0.000000	0.000000	0.837513
0.020000	0.000000	0.000000	0.000000	0.627905	0.000000	0.000000	0.000000	3.767431	3.767431	3.767431	0.000000	3.767431	3.767431	3.767431	0.000000	2.825573	2.825573	2.825573	0.000000	2.825573	2.825573	2.825573	1.255810	2.825573	0.000000	0.000000	0.000000	1.255810
0.026667	0.000000	0.000000	0.000000	0.836778	0.000000	0.000000	0.000000	5.020671	5.020671	5.020671	0.000000	5.020671	5.020671	5.020671	0.000000	3.765503	3.765503	3.765503	0.000000	3.765503	3.765503	3.765503	1.673557	3.765503	0.000000	0.000000	0.000000	1.673557
0.033333	0.000000	0.000000	0.000000	1.045285	0.000000	0.000000	0.000000	6.271708	6.271708	6.271708	0.000000	6.271708	6.271708	6.271708	0.000000	4.703781	4.703781	4.703781	0.000000	4.703781	4.703781	4.703781	2.090569	4.703781	0.000000	0.000000	0.000000	2.090569
0.040000	0.000000	0.000000	0.000000	1.253332	0.000000	0.000000	0.000000	7.519994	7.519994	7.519994	0.000000	7.519994	7.519994	7.519994	0.000000	5.639996	5.639996	5.639996	0.000000	5.639996	5.639996	5.639996	2.506665	5.639996	0.000000	0.000000	0.000000	2.506665
0.046667	0.000000	0.000000	0.000000	1.460830	0.000000	0.000000	0.000000	8.764982	8.764982	8.764982	0.000000	8.764982	8.764982	8.764982	0.000000	6.573736	6.573736	6.573736	0.000000	6.573736	6.573736	6.573736	2.921661	6.573736	0.000000	0.000000	0.000000	2.921661
0.053333	0.000000	0.000000	0.000000	1.667687	0.000000	0.000000	0.000000	10.006125	10.006125	10.006125	0.000000	10.006125	10.006125	10.006125	0.000000	7.504594	7.504594	7.504594	0.000000	7.504594	7.504594	7.504594	3.335375	7.504594	0.000000	0.000000	0.000000	3.335375
0.060000	0.000000	0.000000	0.000000	1.873813	0.000000	0.000000	0.000000	11.242879	11.242879	11.242879	0.000000	11.242879	11.242879	11.242879	0.000000	8.432159	8.432159	8.432159	0.000000	8.432159	8.432159	8.432159	3.747626	8.432159	0.000000	0.000000	0.000000	3.747626
0.066667	0.000000	0.000000	0.000000	2.079117	0.000000	0.000000	0.000000	12.474701	12.474701	12.474701	0.000000	12.474701	12.474701	12.474701	0.000000	9.356026	9.356026	9.356026	0.000000	9.356026	9.356026	9.356026	4.158234	9.356026	0.000000	0.000000	0.000000	4.158234
0.073333	0.000000	0.000000	0.000000	2.283509	0.000000	0.000000	0.000000	13.701052	13.701052	13.701052	0.000000	13.701052	13.701052	13.701052	0.000000	10.275789	10.275789	10.275789	0.000000	10.275789	10.275789	10.275789	4.567017	10.275789	0.000000	0.000000	0.000000	4.567017
0.080000	0.000000	0.000000	0.000000	2.486899	0.000000	0.000000	0.000000	14.921393	14.921393	14.921393	0.000000	14.921393	14.921393	14.921393	0.000000	11.191045	11.191045	11.191045	0.000000	11.191045	11.191045	11.191045	4.973798	11.191045	0.000000	0.000000	0.000000	4.973798
0.086667	0.000000	0.000000	0.000000	2.689198	0.000000	0.000000	0.000000	16.135189	16.135189	16.135189	0.000000	16.135189	16.135189	16.135189	0.000000	12.101392	12.101392	12.101392	0.000000	12.101392	12.101392	12.101392	5.378396	12.101392	0.000000	0.000000	0.000000	5.378396
0.093333	0.000000	0.000000	0.000000	2.890318	0.000000	0.000000	0.000000	17.341908	17.341908	17.341908	0.000000	17.341908	17.341908	17.341908	0.000000	13.006431	13.006431	13.006431	0.000000	13.006431	13.006431	13.006431	5.780636	13.006431	0.000000	0.000000	0.000000	5.780636
0.100000	0.000000	0.000000	0.000000	3.090170	0.000000	0.000000	0.000000	18.541020	18.541020	18.541020	0.000000	18.541020	18.541020	18.541020	0.000000	13.905765	13.905765	13.905765	0.000000	13.905765	13.905765	13.905765	6.180340	13.905765	0.000000	0.000000	0.000000	6.180340
0.106667	0.000000	0.000000	0.000000	3.288666	0.000000	0.000000	0.000000	19.731999	19.731999	19.731999	0.000000	19.731999	19.731999	19.731999	0.000000	14.798999	14.798999	14.798999	0.000000	14.798999	14.798999	14.798999	6.577333	14.798999	0.000000	0.000000	0.000000	6.577333
0.113333	0.000000	0.000000	0.000000	3.485720	0.000000	0.000000	0.000000	20.914323	20.914323	20.914323	0.000000	20.914323	20.914323	20.914323	0.000000	15.685742	15.685742	15.685742	0.000000	15.685742	15.685742	15.685742	6.971441	15.685742	0.000000	0.000000	0.000000	6.971441
0.120000	0.000000	0.000000	0.000000	3.681246	0.000000	0.000000	0.000000	22.087473	22.087473	22.087473	0.000000	22.087473	22.087473	22.087473	0.000000	16.565605	16.565605	16.565605	0.000000	16.565605	16.565605	16.565605	7.362491	16.565605	0.000000	0.000000	0.000000	7.362491
0.126667	0.000000	0.000000	0.000000	3.875156	0.000000	0.000000	0.000000	23.250935	23.250935	23.250935	0.000000	23.250935	23.250935	23.250935	0.000000	17.438201	17.438201	17.438201	0.000000	17.438201	17.438201	17.438201	7.750312	17.438201	0.000000	0.000000	0.000000	7.750312
0.133333	0.000000	0.000000	0.000000	4.067366	0.000000	0.000000	0.000000	24.404199	24.404199	24.404199	0.000000	24.404199	24.404199	24.404199	0.000000	18.303149	18.303149	18.303149	0.000000	18.303149	18.303149	18.303149	8.134733	18.303149	0.000000	0.000000	0.000000	8.134733
0.140000	0.000000	0.000000	0.000000	4.257793	0.000000	0.000000	0.000000	25.546757	25.546757	25.546757	0.000000	25.546757	25.546757	25.546757	0.000000	19.160068	19.160068	19.160068	0.000000	19.160068	19.160068	19.160068	8.515586	19.160068	0.000000	0.000000	0.000000	8.515586
0.146667	0.000000	0.000000	0.000000	4.446352	0.000000	0.000000	0.000000	26.678111	26.678111	26.678111	0.000000	26.678111	26.678111	26.678111	0.000000	20.008583	20.008583	20.008583	0.000000	20.008583	20.008583	20.008583	8.892704	20.008583	0.000000	0.000000	0.000000	8.892704
0.153333	0.000000	0.000000	0.000000	4.632960	0.000000	0.000000	0.000000	27.797762	27.797762	27.797762	0.000000	27.797762	27.797762	27.797762	0.000000	20.848322	20.848322	20.848322	0.000000	20.848322	20.848322	20.848322	9.265921	20.848322	0.000000	0.000000	0.000000	9.265921
0.160000	0.000000	0.000000	0.000000	4.817537	0.000000	0.000000	0.000000	28.905220	28.905220	28.905220	0.000000	28.905220	28.905220	28.905220	0.000000	21.678915	21.678915	21.678915	0.000000	21.678915	21.678915	21.678915	9.635073	21.678915	0.000000	0.000000	0.000000	9.635073
0.166667	0.000000	0.000000	0.000000	5.000000	0.000000	0.000000	0.000000	30.000000	30.000000	30.000000	0.000000	30.000000	30.000000	30.000000	0.000000	22.500000	22.500000	22.500000	0.000000	22.500000	22.500000	22.500000	10.000000	22.500000	0.000000	0.000000	0.000000	10.000000
0.173333	0.000000	0.000000	0.000000	5.180270	0.000000	0.000000	0.000000	31.081621	31.081621	31.081621	0.000000	31.081621	31.081621	31.081621	0.000000	23.311215	23.311215	23.311215	0.000000	23.311215	23.311215	23.311215	10.360540	23.311215	0.000000	0.000000	0.000000	10.360540
0.180000	0.000000	0.000000	0.000000	5.358268	0.000000	0.000000	0.000000	32.149608	32.149608	32.149608	0.000000	32.149608	32.149608	32.149608	0.000000	24.112206	24.112206	24.112206	0.000000	24.112206	24.112206	24.112206	10.716536	24.112206	0.000000	0.000000	0.000000	10.716536
0.186667	0.000000	0.000000	0.000000	5.533915	0.000000	0.000000	0.000000	33.203493	33.203493	33.203493	0.000000	33.203493	33.203493	33.203493	0.000000	24.902620	24.902620	24.902620	0.000000	24.902620	24.902620	24.902620	11.067831	24.902620	0.000000	0.000000	0.000000	11.067831
